<svg width="22" height="22" viewBox="0 0 22 22" fill="none" xmlns="http://www.w3.org/2000/svg">
<path d="M10.9999 1.83334C5.94909 1.83334 1.83325 5.94917 1.83325 11C1.83325 16.0508 5.94909 20.1667 10.9999 20.1667C16.0508 20.1667 20.1666 16.0508 20.1666 11C20.1666 5.94917 16.0508 1.83334 10.9999 1.83334ZM14.6666 11.6875H11.6874V14.6667C11.6874 15.0425 11.3758 15.3542 10.9999 15.3542C10.6241 15.3542 10.3124 15.0425 10.3124 14.6667V11.6875H7.33325C6.95742 11.6875 6.64575 11.3758 6.64575 11C6.64575 10.6242 6.95742 10.3125 7.33325 10.3125H10.3124V7.33334C10.3124 6.95751 10.6241 6.64584 10.9999 6.64584C11.3758 6.64584 11.6874 6.95751 11.6874 7.33334V10.3125H14.6666C15.0424 10.3125 15.3541 10.6242 15.3541 11C15.3541 11.3758 15.0424 11.6875 14.6666 11.6875Z" fill="#B1B5C4"/>
</svg>
