<svg width="32" height="32" viewBox="0 0 32 32" fill="none" xmlns="http://www.w3.org/2000/svg">
<path d="M24 8H6C5.73478 8 5.48043 8.10536 5.29289 8.29289C5.10536 8.48043 5 8.73478 5 9V15.85C5.00264 17.4803 5.65144 19.043 6.80421 20.1958C7.95699 21.3486 9.51973 21.9974 11.15 22H16.85C18.4554 22.0005 19.9974 21.3732 21.1465 20.2521C22.2957 19.131 22.9608 17.6049 23 16H24C25.68 16 27 14.24 27 12C27 9.76 25.68 8 24 8ZM21 15.85C21 16.9506 20.5628 18.0062 19.7845 18.7845C19.0062 19.5628 17.9506 20 16.85 20H11.15C10.0494 20 8.99378 19.5628 8.21551 18.7845C7.43723 18.0062 7 16.9506 7 15.85V10H21V15.85ZM24 14H23V10H24C24.41 10 25 10.78 25 12C25 13.22 24.41 14 24 14ZM21 23H7C6.73478 23 6.48043 23.1054 6.29289 23.2929C6.10536 23.4804 6 23.7348 6 24C6 24.2652 6.10536 24.5196 6.29289 24.7071C6.48043 24.8946 6.73478 25 7 25H21C21.2652 25 21.5196 24.8946 21.7071 24.7071C21.8946 24.5196 22 24.2652 22 24C22 23.7348 21.8946 23.4804 21.7071 23.2929C21.5196 23.1054 21.2652 23 21 23Z" fill="black"/>
</svg>
