<svg width="24" height="24" viewBox="0 0 24 24" fill="none" xmlns="http://www.w3.org/2000/svg">
<path fill-rule="evenodd" clip-rule="evenodd" d="M11.9999 16.097C11.6148 16.097 11.3022 15.7845 11.3022 15.3994V8.58354C11.3022 8.19842 11.6148 7.88586 11.9999 7.88586C12.385 7.88586 12.6976 8.19842 12.6976 8.58354V15.3994C12.6976 15.7845 12.385 16.097 11.9999 16.097Z" fill="#141416"/>
<path fill-rule="evenodd" clip-rule="evenodd" d="M15.4107 12.6886H8.58928C8.20323 12.6886 7.8916 12.376 7.8916 11.9909C7.8916 11.6058 8.20323 11.2932 8.58928 11.2932H15.4107C15.7958 11.2932 16.1083 11.6058 16.1083 11.9909C16.1083 12.376 15.7958 12.6886 15.4107 12.6886Z" fill="#141416"/>
<path fill-rule="evenodd" clip-rule="evenodd" d="M7.64093 3.39535C5.06233 3.39535 3.39535 5.16 3.39535 7.89302V16.107C3.39535 18.84 5.06233 20.6047 7.64093 20.6047H16.3591C18.9386 20.6047 20.6047 18.84 20.6047 16.107V7.89302C20.6047 5.16 18.9386 3.39535 16.3591 3.39535H7.64093ZM16.3591 22H7.64093C4.26698 22 2 19.6316 2 16.107V7.89302C2 4.36837 4.26698 2 7.64093 2H16.3591C19.733 2 22 4.36837 22 7.89302V16.107C22 19.6316 19.733 22 16.3591 22Z" fill="#141416"/>
</svg>
