<svg width="20" height="20" viewBox="0 0 20 20" fill="none" xmlns="http://www.w3.org/2000/svg">
<g id="Category - Light 20px">
<g id="Category">
<path id="Fill 1" fill-rule="evenodd" clip-rule="evenodd" d="M5.48714 3.23077C3.23073 3.23077 3.23073 3.40143 3.23073 5.48718V5.50769C3.23073 6.416 3.23073 7.07241 3.45309 7.34974C3.67052 7.61887 4.31627 7.74359 5.48714 7.74359C6.65801 7.74359 7.30375 7.61805 7.52119 7.34892C7.74355 7.07241 7.74355 6.416 7.74355 5.50687C7.74355 3.40143 7.74355 3.23077 5.48714 3.23077ZM5.48718 8.97436C4.10379 8.97436 3.06585 8.82913 2.49559 8.12103C2 7.50646 2 6.6679 2 5.50769L2.61538 5.48718H2C2 3.13231 2.14851 2 5.48718 2C8.82585 2 8.97436 3.13231 8.97436 5.48718C8.97436 6.66708 8.97436 7.50646 8.47877 8.12103C7.90851 8.82913 6.87056 8.97436 5.48718 8.97436Z" fill="black"/>
<path id="Fill 3" fill-rule="evenodd" clip-rule="evenodd" d="M14.5126 3.23077C12.2562 3.23077 12.2562 3.40143 12.2562 5.48718V5.50769C12.2562 6.416 12.2562 7.07241 12.4785 7.34974C12.696 7.61887 13.3417 7.74359 14.5126 7.74359C15.6835 7.74359 16.3292 7.61805 16.5467 7.34892C16.769 7.07241 16.769 6.416 16.769 5.50687C16.769 3.40143 16.769 3.23077 14.5126 3.23077ZM14.5126 8.97436C13.1292 8.97436 12.0912 8.82913 11.521 8.12103C11.0254 7.50646 11.0254 6.6679 11.0254 5.50769L11.6408 5.48718H11.0254C11.0254 3.13231 11.1739 2 14.5126 2C17.8512 2 17.9997 3.13231 17.9997 5.48718C17.9997 6.66708 17.9997 7.50646 17.5042 8.12103C16.9339 8.82913 15.896 8.97436 14.5126 8.97436Z" fill="black"/>
<path id="Fill 5" fill-rule="evenodd" clip-rule="evenodd" d="M5.48714 12.2562C3.23073 12.2562 3.23073 12.4268 3.23073 14.5126V14.5331C3.23073 15.4414 3.23073 16.0978 3.45309 16.3751C3.67052 16.6443 4.31627 16.769 5.48714 16.769C6.65801 16.769 7.30375 16.6434 7.52119 16.3743C7.74355 16.0978 7.74355 15.4414 7.74355 14.5323C7.74355 12.4268 7.74355 12.2562 5.48714 12.2562ZM5.48718 17.9997C4.10379 17.9997 3.06585 17.8545 2.49559 17.1464C2 16.5319 2 15.6933 2 14.5331L2.61538 14.5126H2C2 12.1577 2.14851 11.0254 5.48718 11.0254C8.82585 11.0254 8.97436 12.1577 8.97436 14.5126C8.97436 15.6925 8.97436 16.5319 8.47877 17.1464C7.90851 17.8545 6.87056 17.9997 5.48718 17.9997Z" fill="black"/>
<path id="Fill 7" fill-rule="evenodd" clip-rule="evenodd" d="M14.5126 12.2562C12.2562 12.2562 12.2562 12.4268 12.2562 14.5126V14.5331C12.2562 15.4414 12.2562 16.0978 12.4785 16.3751C12.696 16.6443 13.3417 16.769 14.5126 16.769C15.6835 16.769 16.3292 16.6434 16.5467 16.3743C16.769 16.0978 16.769 15.4414 16.769 14.5323C16.769 12.4268 16.769 12.2562 14.5126 12.2562ZM14.5126 17.9997C13.1292 17.9997 12.0912 17.8545 11.521 17.1464C11.0254 16.5319 11.0254 15.6933 11.0254 14.5331L11.6408 14.5126H11.0254C11.0254 12.1577 11.1739 11.0254 14.5126 11.0254C17.8512 11.0254 17.9997 12.1577 17.9997 14.5126C17.9997 15.6925 17.9997 16.5319 17.5042 17.1464C16.9339 17.8545 15.896 17.9997 14.5126 17.9997Z" fill="black"/>
</g>
</g>
</svg>
