<svg width="24" height="24" viewBox="0 0 24 24" fill="none" xmlns="http://www.w3.org/2000/svg">
<g id="Comment - Light 24px">
<g id="Chat">
<g id="Group 3">
<mask id="mask0_3475_1598" style="mask-type:luminance" maskUnits="userSpaceOnUse" x="2" y="2" width="20" height="20">
<path id="Clip 2" fill-rule="evenodd" clip-rule="evenodd" d="M2 2H22V22H2V2Z" fill="white"/>
</mask>
<g mask="url(#mask0_3475_1598)">
<path id="Fill 1" fill-rule="evenodd" clip-rule="evenodd" d="M6.75358 19.3771C7.29329 19.3771 7.80229 19.5818 8.34107 19.7986C11.6417 21.3246 15.5453 20.6305 18.0884 18.0884C21.4439 14.7311 21.4439 9.27001 18.0884 5.91462C16.4637 4.28997 14.303 3.39576 12.0027 3.39576C9.70152 3.39576 7.53988 4.2909 5.9161 5.91555C3.37201 8.45768 2.67969 12.3611 4.19181 15.63C4.40956 16.1687 4.61986 16.6935 4.61986 17.2388C4.61986 17.7832 4.43282 18.3312 4.26812 18.8151C4.13226 19.2133 3.92661 19.8144 4.05875 19.9466C4.18809 20.0806 4.79294 19.8693 5.19214 19.7326C5.67137 19.5688 6.2148 19.3808 6.75358 19.3771ZM11.9795 22.0002C10.5576 22.0002 9.12645 21.6996 7.78741 21.0799C7.39286 20.9217 7.02344 20.7729 6.75823 20.7729C6.45302 20.7747 6.04265 20.9162 5.64625 21.0529C4.83296 21.3321 3.82053 21.6801 3.07145 20.9338C2.32516 20.1866 2.66946 19.177 2.94676 18.3647C3.08355 17.9646 3.22406 17.5515 3.22406 17.2388C3.22406 16.982 3.1003 16.6545 2.91047 16.1827C1.16758 12.4188 1.97342 7.88263 4.92973 4.92829C6.81686 3.0403 9.32837 2 12.0018 2C14.6752 2 17.1877 3.03937 19.0748 4.92736C22.9756 8.82802 22.9756 15.174 19.0748 19.0747C17.1626 20.9878 14.5878 22.0002 11.9795 22.0002Z" fill="black"/>
</g>
</g>
<path id="Fill 4" fill-rule="evenodd" clip-rule="evenodd" d="M15.6755 13.318C15.1618 13.318 14.7412 12.9021 14.7412 12.3875C14.7412 11.873 15.1534 11.457 15.6671 11.457H15.6755C16.1891 11.457 16.606 11.873 16.606 12.3875C16.606 12.9021 16.1891 13.318 15.6755 13.318Z" fill="black"/>
<path id="Fill 6" fill-rule="evenodd" clip-rule="evenodd" d="M11.945 13.318C11.4313 13.318 11.0107 12.9021 11.0107 12.3875C11.0107 11.873 11.422 11.457 11.9366 11.457H11.945C12.4587 11.457 12.8755 11.873 12.8755 12.3875C12.8755 12.9021 12.4587 13.318 11.945 13.318Z" fill="black"/>
<path id="Fill 8" fill-rule="evenodd" clip-rule="evenodd" d="M8.21453 13.318C7.70088 13.318 7.28027 12.9021 7.28027 12.3875C7.28027 11.873 7.6925 11.457 8.20616 11.457H8.21453C8.72819 11.457 9.14507 11.873 9.14507 12.3875C9.14507 12.9021 8.72819 13.318 8.21453 13.318Z" fill="black"/>
</g>
</g>
</svg>
