<svg width="20" height="20" viewBox="0 0 20 20" fill="none" xmlns="http://www.w3.org/2000/svg">
<path d="M14.1833 17.7416L11.2833 16.2916C10.475 15.8916 9.5333 15.8916 8.72497 16.2916L5.82497 17.7416C3.3333 18.9833 0.708301 16.3083 2.0083 13.85L2.69163 12.5666C2.7833 12.3916 2.9333 12.25 3.11663 12.1666L13.65 7.41665C14.0833 7.22498 14.5916 7.39998 14.8083 7.81665L17.9833 13.85C19.2833 16.3083 16.6666 18.9833 14.1833 17.7416Z" fill="#777E91"/>
<path d="M13 6.40831L6.1 9.51664C5.325 9.86664 4.54167 9.03331 4.94167 8.28331L7.475 3.47498C8.55 1.43331 11.4667 1.43331 12.5417 3.47498L13.4333 5.17498C13.6667 5.63331 13.4667 6.19998 13 6.40831Z" fill="#777E91"/>
</svg>
