<svg width="24" height="24" viewBox="0 0 24 24" fill="none" xmlns="http://www.w3.org/2000/svg">
<g id="Delete - Light 24px">
<g id="Delete">
<path id="Fill 1" fill-rule="evenodd" clip-rule="evenodd" d="M12.0171 21.9992C10.6957 21.9992 9.40748 21.9842 8.13291 21.9572C6.5024 21.9242 5.37411 20.8402 5.1898 19.1282C4.88261 16.2882 4.35699 9.59417 4.35211 9.52717C4.31895 9.11417 4.61931 8.75217 5.02206 8.71917C5.41897 8.70817 5.77783 8.99417 5.81002 9.40617C5.81489 9.47417 6.33954 16.1452 6.6438 18.9632C6.74814 19.9362 7.26012 20.4382 8.16314 20.4572C10.6011 20.5102 13.0888 20.5132 15.7706 20.4632C16.7302 20.4442 17.249 19.9522 17.3562 18.9562C17.6585 16.1622 18.1851 9.47417 18.191 9.40617C18.2232 8.99417 18.5791 8.70617 18.978 8.71917C19.3807 8.75317 19.6811 9.11417 19.6489 9.52717C19.643 9.59517 19.1145 16.3062 18.8102 19.1212C18.621 20.8682 17.4957 21.9312 15.7969 21.9632C14.497 21.9862 13.2429 21.9992 12.0171 21.9992Z" fill="black"/>
<path id="Fill 3" fill-rule="evenodd" clip-rule="evenodd" d="M20.2686 6.98828H3.73139C3.32766 6.98828 3 6.65228 3 6.23828C3 5.82428 3.32766 5.48828 3.73139 5.48828H20.2686C20.6723 5.48828 21 5.82428 21 6.23828C21 6.65228 20.6723 6.98828 20.2686 6.98828Z" fill="black"/>
<path id="Fill 5" fill-rule="evenodd" clip-rule="evenodd" d="M17.0823 6.989C15.9725 6.989 15.009 6.178 14.7906 5.062L14.5536 3.846C14.5039 3.661 14.2981 3.5 14.0641 3.5H9.93612C9.70207 3.5 9.49631 3.661 9.43682 3.892L9.2096 5.062C8.99214 6.178 8.02768 6.989 6.91791 6.989C6.51419 6.989 6.18652 6.653 6.18652 6.239C6.18652 5.825 6.51419 5.489 6.91791 5.489C7.33334 5.489 7.69416 5.185 7.77608 4.767L8.01305 3.551C8.25392 2.619 9.0409 2 9.93612 2H14.0641C14.9593 2 15.7463 2.619 15.9774 3.506L16.2251 4.767C16.306 5.185 16.6669 5.489 17.0823 5.489C17.486 5.489 17.8137 5.825 17.8137 6.239C17.8137 6.653 17.486 6.989 17.0823 6.989Z" fill="black"/>
</g>
</g>
</svg>
