<svg width="24" height="24" viewBox="0 0 24 24" fill="none" xmlns="http://www.w3.org/2000/svg">
<g id="Document - Light 24px">
<g id="Document">
<path id="Fill 1" fill-rule="evenodd" clip-rule="evenodd" d="M15.6009 17.042H8.44632C8.03608 17.042 7.70312 16.7044 7.70312 16.2886C7.70312 15.8727 8.03608 15.5352 8.44632 15.5352H15.6009C16.0111 15.5352 16.3441 15.8727 16.3441 16.2886C16.3441 16.7044 16.0111 17.042 15.6009 17.042Z" fill="black"/>
<path id="Fill 3" fill-rule="evenodd" clip-rule="evenodd" d="M15.6009 12.8349H8.44632C8.03608 12.8349 7.70312 12.4974 7.70312 12.0815C7.70312 11.6656 8.03608 11.3281 8.44632 11.3281H15.6009C16.0111 11.3281 16.3441 11.6656 16.3441 12.0815C16.3441 12.4974 16.0111 12.8349 15.6009 12.8349Z" fill="black"/>
<path id="Fill 5" fill-rule="evenodd" clip-rule="evenodd" d="M11.1754 8.63961H8.44535C8.0351 8.63961 7.70215 8.30209 7.70215 7.88621C7.70215 7.47033 8.0351 7.13281 8.44535 7.13281H11.1754C11.5856 7.13281 11.9186 7.47033 11.9186 7.88621C11.9186 8.30209 11.5856 8.63961 11.1754 8.63961Z" fill="black"/>
<g id="Group 9">
<mask id="mask0_3475_2847" style="mask-type:alpha" maskUnits="userSpaceOnUse" x="3" y="2" width="18" height="20">
<path id="Clip 8" fill-rule="evenodd" clip-rule="evenodd" d="M3 2H21V22H3V2Z" fill="white"/>
</mask>
<g mask="url(#mask0_3475_2847)">
<path id="Fill 7" fill-rule="evenodd" clip-rule="evenodd" d="M15.7919 3.50679L8.17266 3.51081C5.86577 3.52488 4.48639 4.9714 4.48639 7.38127V16.6189C4.48639 19.0449 5.87865 20.4934 8.20833 20.4934L15.8276 20.4904C18.1345 20.4763 19.5139 19.0278 19.5139 16.6189V7.38127C19.5139 4.95533 18.1226 3.50679 15.7919 3.50679ZM8.20933 22.0002C5.09384 22.0002 3 19.8374 3 16.6189V7.38127C3 4.13362 5.02844 2.0231 8.16772 2.00402L15.791 2H15.792C18.9074 2 21.0003 4.16275 21.0003 7.38127V16.6189C21.0003 19.8656 18.9719 21.9771 15.8326 21.9972L8.20933 22.0002Z" fill="black"/>
</g>
</g>
</g>
</g>
</svg>
