<svg width="20" height="20" viewBox="0 0 20 20" fill="none" xmlns="http://www.w3.org/2000/svg">
<g id="Show - Light 29px">
<g id="Show">
<path id="Fill 1" fill-rule="evenodd" clip-rule="evenodd" d="M9.99998 8.20359C8.93597 8.20359 8.07117 9.0098 8.07117 10.0008C8.07117 10.991 8.93597 11.7965 9.99998 11.7965C11.064 11.7965 11.9296 10.991 11.9296 10.0008C11.9296 9.0098 11.064 8.20359 9.99998 8.20359ZM9.99992 12.9142C8.2743 12.9142 6.87109 11.6073 6.87109 10.0008C6.87109 8.39361 8.2743 7.08594 9.99992 7.08594C11.7255 7.08594 13.1295 8.39361 13.1295 10.0008C13.1295 11.6073 11.7255 12.9142 9.99992 12.9142Z" fill="black"/>
<g id="Group 5">
<mask id="mask0_3475_2397" style="mask-type:alpha" maskUnits="userSpaceOnUse" x="2" y="4" width="16" height="12">
<path id="Clip 4" fill-rule="evenodd" clip-rule="evenodd" d="M2 4H18V16H2V4Z" fill="white"/>
</mask>
<g mask="url(#mask0_3475_2397)">
<path id="Fill 3" fill-rule="evenodd" clip-rule="evenodd" d="M3.2558 10.0003C4.74381 13.062 7.25023 14.8823 9.99985 14.883C12.7495 14.8823 15.2559 13.062 16.7439 10.0003C15.2559 6.93939 12.7495 5.11909 9.99985 5.11834C7.25103 5.11909 4.74381 6.93939 3.2558 10.0003ZM10.0015 16.0006H9.99826H9.99746C6.68864 15.9983 3.71741 13.8382 2.0486 10.2207C1.9838 10.0799 1.9838 9.92046 2.0486 9.77963C3.71741 6.16287 6.68944 4.00279 9.99746 4.00056C9.99906 3.99981 9.99906 3.99981 9.99986 4.00056C10.0015 3.99981 10.0015 3.99981 10.0023 4.00056C13.3111 4.00279 16.2823 6.16287 17.9511 9.77963C18.0167 9.92046 18.0167 10.0799 17.9511 10.2207C16.2831 13.8382 13.3111 15.9983 10.0023 16.0006H10.0015Z" fill="black"/>
</g>
</g>
</g>
</g>
</svg>
