<svg width="32" height="32" viewBox="0 0 32 32" fill="none" xmlns="http://www.w3.org/2000/svg">
<g clip-path="url(#clip0_2565_67)">
<mask id="mask0_2565_67" style="mask-type:luminance" maskUnits="userSpaceOnUse" x="0" y="0" width="32" height="33">
<path d="M0 0H32V32.0004H0V0Z" fill="white"/>
</mask>
<g mask="url(#mask0_2565_67)">
<path fill-rule="evenodd" clip-rule="evenodd" d="M25.0002 9.00011C25.0002 8.20419 24.6839 7.44169 24.1217 6.87849C23.5589 6.31617 22.7956 6.00008 22.0001 6.00008H10.0003C9.20414 6.00008 8.44143 6.31617 7.87865 6.87849C7.31651 7.44169 7.00021 8.20401 7.00021 9.00011V29.0004C7.00021 29.7963 7.31651 30.5588 7.87865 31.122C8.44143 31.6843 9.20414 32.0004 10.0003 32.0004H22.0001C22.7956 32.0004 23.5589 31.6843 24.1217 31.122C24.6839 30.5588 25.0002 29.7963 25.0002 29.0004V9.00011ZM23.0002 9.00011V29.0004C23.0002 29.266 22.8944 29.5195 22.7072 29.7076C22.5197 29.8948 22.2652 30.0004 22.0001 30.0004H10.0003C9.73497 30.0004 9.48066 29.8948 9.29321 29.7076C9.10576 29.5195 9.00018 29.266 9.00018 29.0004V9.00011C9.00018 8.73451 9.10597 8.48099 9.29321 8.2929C9.48066 8.1057 9.73497 8.0001 10.0003 8.0001H22.0001C22.2652 8.0001 22.5197 8.1057 22.7072 8.2929C22.8944 8.48082 23.0002 8.73451 23.0002 9.00011ZM11.2928 0.292981L9.29279 2.29301C8.90244 2.68341 8.90244 3.31702 9.29279 3.70725C9.68292 4.09765 10.3168 4.09765 10.7069 3.70725L12.7069 1.70722C13.0974 1.31682 13.0974 0.683209 12.7069 0.292804C12.3168 -0.0974234 11.6831 -0.0974234 11.2928 0.292804V0.292981ZM20.707 2.29283L18.707 0.292804C18.3167 -0.0976012 17.683 -0.0976012 17.2929 0.292804C16.9025 0.683031 16.9025 1.31682 17.2929 1.70704L19.2929 3.70707C19.6832 4.09747 20.3169 4.09747 20.7072 3.70707C21.0975 3.31684 21.0975 2.68323 20.7072 2.29283H20.707Z" fill="black"/>
<path fill-rule="evenodd" clip-rule="evenodd" d="M11.293 1.70722L13.2929 3.70725C13.6833 4.09765 14.3169 4.09765 14.7071 3.70725C15.0974 3.31702 15.0974 2.68323 14.7071 2.29301L12.7071 0.292981C12.3167 -0.0974234 11.6831 -0.0974234 11.2927 0.292981C10.9024 0.683209 10.9026 1.31682 11.293 1.70722ZM20.7072 3.70707L22.7072 1.70704C23.0975 1.31664 23.0975 0.683031 22.7072 0.292804C22.317 -0.0976012 21.6832 -0.0976012 21.293 0.292804L19.2931 2.29283C18.9025 2.68323 18.9025 3.31684 19.2931 3.70725C19.6832 4.09747 20.3168 4.09747 20.7072 3.70725V3.70707ZM16 10.0001C14.344 10.0001 12.9999 11.3441 12.9999 13.0002C12.9999 14.6562 14.344 16.0002 16 16.0002C17.6559 16.0002 19 14.6562 19 13.0002C19 11.3441 17.6559 10.0001 16 10.0001ZM16 12.0002C16.5522 12.0002 17.0001 12.4482 17.0001 13.0002C17.0001 13.5522 16.552 14.0002 16 14.0002C15.448 14.0002 15.0001 13.5522 15.0001 13.0002C15.0001 12.4482 15.448 12.0002 16 12.0002ZM12.9999 27.8283C12.9999 27.5634 12.8948 27.3093 12.7069 27.1214L11.8788 26.2933C11.3158 25.7303 10.9997 24.9672 10.9997 24.1724V21.0003C10.9997 19.3434 12.3428 18.0002 13.9998 18.0002H17.9997C19.6567 18.0002 20.9998 19.3432 20.9998 21.0003V24.1724C20.9998 24.9672 20.6837 25.7303 20.1207 26.2933L19.2928 27.1214C19.1048 27.3093 18.9998 27.5634 18.9998 27.8283V31.0004C18.9998 31.5524 18.5517 32.0004 17.9997 32.0004H13.9998C13.4478 32.0004 12.9999 31.5524 12.9999 31.0004V27.8283ZM16.9996 30.0004V27.8283C16.9996 27.0334 17.3155 26.2704 17.8785 25.7073L18.7066 24.8792C18.8947 24.6913 18.9996 24.4373 18.9996 24.1724V21.0003C18.9996 20.4483 18.5515 20.0003 17.9995 20.0003H13.9998C13.4478 20.0003 12.9999 20.4483 12.9999 21.0003V24.1724C12.9999 24.4373 13.1048 24.6913 13.2927 24.8792L14.1208 25.7073C14.6838 26.2704 14.9999 27.0334 14.9999 27.8283V30.0004H16.9996Z" fill="black"/>
</g>
</g>
<defs>
<clipPath id="clip0_2565_67">
<rect width="32" height="32" fill="white"/>
</clipPath>
</defs>
</svg>
