<svg width="20" height="20" viewBox="0 0 20 20" fill="none" xmlns="http://www.w3.org/2000/svg">
<g id="Hide - Light 20px">
<g id="Hide">
<path id="Fill 1" fill-rule="evenodd" clip-rule="evenodd" d="M8.20914 12.2428C8.05554 12.2428 7.90194 12.1879 7.78514 12.0772C7.19474 11.5225 6.86914 10.785 6.86914 10.0007C6.86914 8.37509 8.27394 7.05273 10.0003 7.05273C10.8307 7.05273 11.6371 7.36808 12.2123 7.91825C12.4443 8.14102 12.4419 8.49776 12.2051 8.71602C11.9691 8.93579 11.5899 8.93203 11.3571 8.71076C11.0059 8.37433 10.5115 8.18166 10.0003 8.18166C8.93554 8.18166 8.06914 8.9975 8.06914 10.0007C8.06914 10.4832 8.26994 10.9378 8.63314 11.2794C8.86754 11.5 8.86754 11.8567 8.63394 12.0772C8.51634 12.1879 8.36274 12.2428 8.20914 12.2428Z" fill="black"/>
<path id="Fill 3" fill-rule="evenodd" clip-rule="evenodd" d="M10.4539 12.9008C10.1699 12.9008 9.91706 12.7096 9.86426 12.4372C9.80506 12.1309 10.0211 11.8366 10.3475 11.7809C11.1315 11.6469 11.7523 11.0614 11.8931 10.3231C11.9523 10.0168 12.2643 9.81505 12.5899 9.86773C12.9163 9.92267 13.1331 10.2162 13.0747 10.5233C12.8451 11.7222 11.8355 12.6735 10.5619 12.8918C10.5259 12.8978 10.4891 12.9008 10.4539 12.9008Z" fill="black"/>
<g id="Group 7">
<mask id="mask0_3475_2434" style="mask-type:alpha" maskUnits="userSpaceOnUse" x="2" y="3" width="13" height="12">
<path id="Clip 6" fill-rule="evenodd" clip-rule="evenodd" d="M2 3.96875H14.869V14.5793H2V3.96875Z" fill="white"/>
</mask>
<g mask="url(#mask0_3475_2434)">
<path id="Fill 5" fill-rule="evenodd" clip-rule="evenodd" d="M5.7236 14.5793C5.594 14.5793 5.4636 14.5394 5.3532 14.4589C4.0004 13.4594 2.8572 11.994 2.0492 10.2224C1.9836 10.0794 1.9836 9.9183 2.0492 9.77606C2.866 7.99687 4.0164 6.52399 5.3764 5.51774C8.1492 3.4533 11.8404 3.44653 14.6412 5.53279C14.9012 5.72621 14.9452 6.08145 14.7396 6.32605C14.5332 6.56915 14.1572 6.61205 13.8964 6.41787C11.5236 4.65072 8.4668 4.65674 6.1196 6.40432C4.9708 7.25478 3.9844 8.49359 3.2564 10.0003C3.9772 11.4981 4.9548 12.7293 6.0948 13.5708C6.3556 13.7634 6.4004 14.1187 6.1956 14.3633C6.0772 14.5048 5.9012 14.5793 5.7236 14.5793Z" fill="black"/>
</g>
</g>
<g id="Group 10">
<mask id="mask1_3475_2434" style="mask-type:alpha" maskUnits="userSpaceOnUse" x="7" y="7" width="11" height="10">
<path id="Clip 9" fill-rule="evenodd" clip-rule="evenodd" d="M7.37402 7.06836H18V16.0608H7.37402V7.06836Z" fill="white"/>
</mask>
<g mask="url(#mask1_3475_2434)">
<path id="Fill 8" fill-rule="evenodd" clip-rule="evenodd" d="M10.0001 16.0608C9.25053 16.0608 8.50493 15.9464 7.78493 15.7214C7.47053 15.6228 7.30013 15.3029 7.40493 15.0071C7.50973 14.7106 7.84813 14.5533 8.16413 14.6497C8.76173 14.8371 9.37933 14.9319 10.0001 14.9319C12.7425 14.9319 15.2489 13.094 16.7441 9.99997C16.3793 9.2481 15.9545 8.56698 15.4793 7.97241C15.2801 7.72329 15.3329 7.36881 15.5977 7.18141C15.8617 6.994 16.2385 7.04518 16.4377 7.29355C17.0169 8.01681 17.5257 8.85297 17.9505 9.77569C18.0169 9.91868 18.0169 10.0812 17.9505 10.2235C16.2737 13.879 13.3017 16.0608 10.0001 16.0608Z" fill="black"/>
</g>
</g>
<g id="Group 13">
<mask id="mask2_3475_2434" style="mask-type:alpha" maskUnits="userSpaceOnUse" x="3" y="3" width="14" height="14">
<path id="Clip 12" fill-rule="evenodd" clip-rule="evenodd" d="M3.09082 3.5H16.9096V16.5H3.09082V3.5Z" fill="white"/>
</mask>
<g mask="url(#mask2_3475_2434)">
<path id="Fill 11" fill-rule="evenodd" clip-rule="evenodd" d="M3.69062 16.5006C3.53702 16.5006 3.38342 16.4456 3.26662 16.335C3.03222 16.1145 3.03222 15.7577 3.26662 15.5372L15.8858 3.66539C16.1202 3.44487 16.4994 3.44487 16.7338 3.66539C16.9682 3.88591 16.9682 4.2434 16.7338 4.46392L4.11462 16.335C3.99782 16.4456 3.84422 16.5006 3.69062 16.5006Z" fill="black"/>
</g>
</g>
</g>
</g>
</svg>
