<svg width="20" height="20" viewBox="0 0 20 20" fill="none" xmlns="http://www.w3.org/2000/svg">
<g id="Filter - Light 20px">
<g id="Group 10">
<path id="Fill 1" fill-rule="evenodd" clip-rule="evenodd" d="M8.47311 14.9692H2.71209C2.33357 14.9692 2.02637 14.6734 2.02637 14.3088C2.02637 13.9443 2.33357 13.6484 2.71209 13.6484H8.47311C8.85163 13.6484 9.15883 13.9443 9.15883 14.3088C9.15883 14.6734 8.85163 14.9692 8.47311 14.9692Z" fill="black"/>
<path id="Fill 3" fill-rule="evenodd" clip-rule="evenodd" d="M16.8032 6.43407H11.0431C10.6646 6.43407 10.3574 6.13821 10.3574 5.77368C10.3574 5.40914 10.6646 5.11328 11.0431 5.11328H16.8032C17.1818 5.11328 17.489 5.40914 17.489 5.77368C17.489 6.13821 17.1818 6.43407 16.8032 6.43407Z" fill="black"/>
<g id="Group 7">
<mask id="mask0_3475_2519" style="mask-type:alpha" maskUnits="userSpaceOnUse" x="2" y="3" width="6" height="6">
<path id="Clip 6" fill-rule="evenodd" clip-rule="evenodd" d="M2 3H7.69226V8.45186H2V3Z" fill="white"/>
</mask>
<g mask="url(#mask0_3475_2519)">
<path id="Fill 5" fill-rule="evenodd" clip-rule="evenodd" d="M4.84629 4.3209C4.03348 4.3209 3.37152 4.95136 3.37152 5.7271C3.37152 6.50196 4.03348 7.13154 4.84629 7.13154C5.66002 7.13154 6.32106 6.50196 6.32106 5.7271C6.32106 4.95136 5.66002 4.3209 4.84629 4.3209ZM4.84622 8.45221C3.27728 8.45221 2 7.23004 2 5.72699C2 4.22393 3.27728 3 4.84622 3C6.41608 3 7.69244 4.22393 7.69244 5.72699C7.69244 7.23004 6.41608 8.45221 4.84622 8.45221Z" fill="black"/>
</g>
</g>
<path id="Fill 8" fill-rule="evenodd" clip-rule="evenodd" d="M15.1547 12.8677C14.341 12.8677 13.679 13.4982 13.679 14.273C13.679 15.0488 14.341 15.6783 15.1547 15.6783C15.9675 15.6783 16.6286 15.0488 16.6286 14.273C16.6286 13.4982 15.9675 12.8677 15.1547 12.8677ZM15.1548 16.9991C13.5849 16.9991 12.3076 15.776 12.3076 14.273C12.3076 12.7699 13.5849 11.5469 15.1548 11.5469C16.7237 11.5469 18.0001 12.7699 18.0001 14.273C18.0001 15.776 16.7237 16.9991 15.1548 16.9991Z" fill="black"/>
</g>
</g>
</svg>
