<svg width="100" height="100" viewBox="0 0 100 100" fill="none" xmlns="http://www.w3.org/2000/svg">
<path d="M50 43C46.1 43 43 46.1 43 50C43 53.9 46.1 57 50 57C53.9 57 57 53.9 57 50C57 46.1 53.9 43 50 43ZM50 53C48.3 53 47 51.6 47 50C47 48.3 48.3 47 50 47C51.7 47 53 48.3 53 50C53 51.6 51.7 53 50 53ZM50 5C25.2 5 5 25.2 5 50C5 74.8 25.2 95 50 95C74.8 95 95 74.8 95 50C95 25.2 74.8 5 50 5ZM50 91C27.4 91 9 72.6 9 50C9 27.4 27.4 9 50 9C72.6 9 91 27.4 91 50C91 72.6 72.6 91 50 91ZM50 15C30.7 15 15 30.7 15 50C15 69.3 30.7 85 50 85C69.3 85 85 69.3 85 50C85 30.7 69.3 15 50 15ZM80.2 43.1H62.8L62.4 42.4L71.1 27.3C75.6 31.5 78.8 36.9 80.2 43.1ZM50 19C53.2 19 56.3 19.5 59.2 20.4L50.5 35.5H49.6L40.9 20.4C43.7 19.5 46.8 19 50 19ZM28.9 27.3L37.6 42.4L37.2 43.1H19.8C21.2 36.9 24.4 31.5 28.9 27.3ZM19.8 56.9H37.2L37.6 57.6L28.9 72.7C24.4 68.5 21.2 63.1 19.8 56.9ZM50 81C46.8 81 43.7 80.5 40.8 79.6L49.5 64.5H50.4L59.1 79.6C56.3 80.5 53.2 81 50 81ZM71.1 72.7L62.4 57.6L62.8 56.9H80.2C78.8 63.1 75.6 68.5 71.1 72.7ZM80.9 52.9H61.6C60.9 52.9 60.2 53.3 59.9 53.9L58.3 56.6C57.9 57.2 57.9 58 58.3 58.6L67.9 75.2C67.4 75.6 66.8 76 66.2 76.3L64.5 77.3C64 77.6 63.4 77.9 62.8 78.1L53.2 61.5C52.9 60.9 52.2 60.5 51.5 60.5H48.3C47.6 60.5 46.9 60.9 46.6 61.5L37 78.1C36.4 77.8 35.9 77.6 35.3 77.3L33.6 76.3C33 75.9 32.5 75.6 31.9 75.2L41.5 58.6C41.9 58 41.9 57.2 41.5 56.6L39.9 53.9C39.5 53.3 38.9 52.9 38.2 52.9H19.1C19.1 52.3 19 51.6 19 51V49C19 48.4 19.1 47.7 19.1 47.1H38.3C39 47.1 39.7 46.7 40 46.1L41.6 43.4C42 42.8 42 42 41.6 41.4L32 24.7C32.5 24.3 33.1 23.9 33.7 23.6L35.3 22.7C35.8 22.4 36.4 22.1 37 21.9L46.6 38.6C46.9 39.2 47.6 39.6 48.3 39.6H51.5C52.2 39.6 52.9 39.2 53.2 38.6L62.8 21.9C63.4 22.2 63.9 22.4 64.5 22.7L66.1 23.6C66.7 24 67.2 24.3 67.8 24.7L58.2 41.4C57.8 42 57.8 42.8 58.2 43.4L59.8 46.1C60.2 46.7 60.8 47.1 61.5 47.1H80.7C80.8 47.7 80.8 48.4 80.8 49V51C81 51.6 80.9 52.2 80.9 52.9Z" fill="black"/>
</svg>
