<svg width="24" height="24" viewBox="0 0 24 24" fill="none" xmlns="http://www.w3.org/2000/svg">
<g id="Heart - Light 24px">
<g id="Heart">
<g id="Group 3">
<mask id="mask0_3475_2953" style="mask-type:alpha" maskUnits="userSpaceOnUse" x="2" y="2" width="20" height="20">
<path id="Clip 2" fill-rule="evenodd" clip-rule="evenodd" d="M2 2.5H22V21.5H2V2.5Z" fill="white"/>
</mask>
<g mask="url(#mask0_3475_2953)">
<path id="Fill 1" fill-rule="evenodd" clip-rule="evenodd" d="M3.78183 11.3887C5.15147 15.6387 10.5626 19.0751 12.0007 19.9256C13.4436 19.0663 18.8938 15.5919 20.2195 11.3926C21.0899 8.6782 20.282 5.23987 17.0718 4.20807C15.5166 3.7102 13.7024 4.01321 12.45 4.97973C12.1882 5.18043 11.8248 5.18433 11.561 4.98557C10.2344 3.9908 8.50133 3.69948 6.92165 4.20807C3.71638 5.23889 2.9114 8.67723 3.78183 11.3887ZM12.0017 21.5001C11.8805 21.5001 11.7604 21.4709 11.6509 21.4115C11.3452 21.2448 4.14234 17.2853 2.38682 11.835C2.38584 11.835 2.38584 11.834 2.38584 11.834C1.28388 8.40248 2.51089 4.09019 6.4723 2.81677C8.33235 2.21659 10.3595 2.48063 11.9987 3.51242C13.5872 2.51083 15.6973 2.23413 17.5203 2.81677C21.4856 4.09214 22.7165 8.40345 21.6155 11.834C19.9167 17.2219 12.6611 21.2409 12.3534 21.4095C12.2439 21.4699 12.1228 21.5001 12.0017 21.5001Z" fill="black"/>
</g>
</g>
<path id="Fill 4" fill-rule="evenodd" clip-rule="evenodd" d="M17.7806 9.9298C17.4026 9.9298 17.0821 9.64043 17.0509 9.2585C16.9864 8.45762 16.4491 7.78145 15.6842 7.53495C15.2983 7.41024 15.0873 6.9981 15.2113 6.6152C15.3373 6.23132 15.7467 6.02282 16.1335 6.14363C17.4651 6.5733 18.398 7.7493 18.5123 9.13963C18.5446 9.54202 18.2447 9.89472 17.8412 9.92688C17.8207 9.92882 17.8011 9.9298 17.7806 9.9298Z" fill="black"/>
</g>
</g>
</svg>
