<svg width="24" height="24" viewBox="0 0 24 24" fill="none" xmlns="http://www.w3.org/2000/svg">
<g id="Home - Light 24px">
<g id="Home">
<mask id="mask0_3475_1524" style="mask-type:alpha" maskUnits="userSpaceOnUse" x="2" y="2" width="20" height="20">
<path id="Clip 2" fill-rule="evenodd" clip-rule="evenodd" d="M2.5 2H21.5V22H2.5V2Z" fill="white"/>
</mask>
<g mask="url(#mask0_3475_1524)">
<path id="Fill 1" fill-rule="evenodd" clip-rule="evenodd" d="M13.3598 15.2911C14.4757 15.2911 15.384 16.196 15.384 17.3083V20.1691C15.384 20.4081 15.5749 20.5996 15.8196 20.6052H17.5861C18.9783 20.6052 20.1099 19.4836 20.1099 18.1053V9.99188C20.1034 9.51758 19.8782 9.07117 19.4917 8.77449L13.3811 3.88447C12.5608 3.23253 11.4134 3.23253 10.5904 3.88633L4.52144 8.77263C4.12011 9.07861 3.89489 9.52502 3.89026 10.0077V18.1053C3.89026 19.4836 5.02193 20.6052 6.41404 20.6052H8.19728C8.44845 20.6052 8.65235 20.4053 8.65235 20.1598C8.65235 20.1058 8.65884 20.0519 8.66996 20.0007V17.3083C8.66996 16.2025 9.5727 15.2986 10.6803 15.2911H13.3598ZM17.5862 22.0002H15.8029C14.7815 21.9761 13.9937 21.1716 13.9937 20.169V17.3083C13.9937 16.9651 13.7092 16.6861 13.3598 16.6861H10.6849C10.3429 16.688 10.0602 16.9679 10.0602 17.3083V20.1597C10.0602 20.2295 10.051 20.2964 10.0315 20.3597C9.93139 21.2804 9.14729 22.0002 8.19728 22.0002H6.41404C4.25543 22.0002 2.5 20.2527 2.5 18.1053V10.0012C2.50927 9.07673 2.93376 8.23041 3.66689 7.67333L9.72378 2.7954C11.0575 1.73518 12.9158 1.73518 14.2468 2.79354L20.3472 7.67612C21.0636 8.2239 21.4881 9.06836 21.5002 9.98163V18.1053C21.5002 20.2527 19.7448 22.0002 17.5862 22.0002Z" fill="black"/>
</g>
</g>
</g>
</svg>
