<?xml version="1.0" standalone="no"?>
<!DOCTYPE svg PUBLIC "-//W3C//DTD SVG 20010904//EN"
 "http://www.w3.org/TR/2001/REC-SVG-20010904/DTD/svg10.dtd">
<svg version="1.0" xmlns="http://www.w3.org/2000/svg"
 width="512.000000pt" height="512.000000pt" viewBox="0 0 512.000000 512.000000"
 preserveAspectRatio="xMidYMid meet">

<g transform="translate(0.000000,512.000000) scale(0.100000,-0.100000)"
fill="#000000" stroke="none">
<path d="M2036 5104 c-108 -26 -235 -124 -284 -220 -55 -107 -67 -236 -32
-346 l20 -63 -548 -547 -547 -548 -63 20 c-164 51 -344 3 -458 -123 -130 -143
-157 -330 -73 -509 27 -57 85 -118 607 -639 373 -372 594 -586 625 -603 91
-52 195 -71 295 -56 183 29 329 166 372 349 15 64 8 177 -15 241 l-16 44 116
116 115 115 146 -145 c120 -119 276 -305 882 -1050 405 -498 757 -924 782
-948 96 -92 231 -160 361 -181 374 -61 728 194 789 569 33 202 -37 431 -177
575 -26 28 -455 382 -953 787 -743 605 -931 763 -1050 882 l-145 146 116 116
116 116 49 -17 c259 -89 541 83 584 357 16 103 -7 217 -61 304 -17 27 -281
300 -602 621 -524 524 -577 574 -637 602 -109 51 -204 62 -314 35z m167 -298
c18 -8 269 -252 589 -572 486 -488 557 -564 563 -596 21 -112 -94 -208 -202
-168 -32 12 -1116 1090 -1139 1132 -22 41 -18 109 9 149 41 61 114 84 180 55z
m162 -986 l420 -420 -533 -532 -532 -533 -420 420 c-231 231 -420 424 -420
430 0 13 1042 1055 1055 1055 6 0 199 -189 430 -420z m-1847 -714 c42 -23
1120 -1107 1132 -1139 26 -73 -6 -154 -75 -187 -49 -24 -74 -25 -118 -6 -18 8
-269 252 -589 572 -596 599 -583 583 -563 661 22 92 131 142 213 99z m2160
-663 l-108 -108 -105 105 -105 105 107 107 108 108 105 -105 105 -105 -107
-107z m1162 -773 c454 -369 846 -693 871 -719 145 -154 142 -386 -7 -535 -141
-141 -363 -152 -516 -26 -33 28 -1361 1648 -1398 1707 -14 22 -11 26 95 133
60 61 114 110 120 110 5 0 381 -302 835 -670z"/>
<path d="M361 889 c-128 -25 -257 -125 -311 -241 -42 -89 -50 -147 -50 -350 0
-208 10 -242 80 -278 38 -20 57 -20 970 -20 913 0 932 0 970 20 70 36 80 70
80 278 0 99 -5 203 -10 233 -34 180 -179 325 -359 359 -66 12 -1306 12 -1370
-1z m1359 -309 c60 -31 80 -78 80 -190 l0 -90 -750 0 -750 0 0 90 c0 110 20
159 78 189 36 19 60 20 670 21 615 0 634 -1 672 -20z"/>
</g>
</svg>
