<svg width="25" height="24" viewBox="0 0 25 24" fill="none" xmlns="http://www.w3.org/2000/svg">
<path d="M21.6103 8.36997L14.6803 2.82997C13.6103 1.96997 11.8803 1.96997 10.8203 2.81997L3.89027 8.36997C3.11027 8.98997 2.61027 10.3 2.78027 11.28L4.11027 19.24C4.35027 20.66 5.71027 21.81 7.15027 21.81H18.3503C19.7803 21.81 21.1503 20.65 21.3903 19.24L22.7203 11.28C22.8803 10.3 22.3803 8.98997 21.6103 8.36997ZM12.7503 15.5C11.3703 15.5 10.2503 14.38 10.2503 13C10.2503 11.62 11.3703 10.5 12.7503 10.5C14.1303 10.5 15.2503 11.62 15.2503 13C15.2503 14.38 14.1303 15.5 12.7503 15.5Z" fill="#515255"/>
</svg>
