<?xml version="1.0" standalone="no"?>
<!DOCTYPE svg PUBLIC "-//W3C//DTD SVG 20010904//EN"
 "http://www.w3.org/TR/2001/REC-SVG-20010904/DTD/svg10.dtd">
<svg version="1.0" xmlns="http://www.w3.org/2000/svg"
 width="512.000000pt" height="512.000000pt" viewBox="0 0 512.000000 512.000000"
 preserveAspectRatio="xMidYMid meet">
<metadata>
Created by potrace 1.16, written by Peter Selinger 2001-2019
</metadata>
<g transform="translate(0.000000,512.000000) scale(0.100000,-0.100000)"
fill="#000000" stroke="none">
<path d="M375 4381 c-22 -10 -54 -34 -72 -52 -67 -71 -63 27 -63 -1409 0
-1436 -4 -1338 63 -1409 18 -18 50 -42 72 -52 38 -18 96 -19 1396 -19 l1355 0
23 -80 c86 -295 292 -507 591 -606 80 -26 96 -28 255 -29 195 0 242 10 390 81
225 108 395 308 466 549 30 100 37 313 15 423 -64 315 -294 569 -601 665 -44
14 -104 28 -132 32 l-53 7 0 869 c0 959 3 908 -63 978 -18 18 -50 42 -72 52
-38 18 -106 19 -1785 19 -1679 0 -1747 -1 -1785 -19z m3489 -155 c23 -9 37
-24 45 -46 8 -24 11 -270 11 -866 l0 -832 -52 -7 c-72 -10 -222 -59 -284 -93
l-50 -28 -314 344 c-172 190 -327 353 -344 363 -40 24 -132 26 -166 3 -14 -9
-125 -116 -247 -238 -136 -134 -226 -217 -231 -211 -5 6 -98 127 -207 270
-218 287 -238 310 -277 331 -35 18 -99 18 -143 0 -26 -11 -160 -173 -619 -746
l-586 -732 0 1204 c0 873 3 1214 11 1238 22 63 -87 59 1747 60 1407 0 1678 -2
1706 -14z m-1629 -1899 l551 -722 -1130 -3 c-621 -1 -1131 0 -1134 2 -5 5
1149 1446 1158 1445 3 0 253 -325 555 -722z m845 268 c139 -154 267 -294 283
-312 l30 -32 -50 -58 c-135 -157 -208 -327 -220 -505 l-6 -88 -56 1 -56 0
-329 431 -328 431 223 223 c210 210 225 223 240 206 9 -9 130 -143 269 -297z
m1064 -296 c238 -46 448 -234 534 -478 24 -69 27 -89 27 -221 0 -132 -3 -152
-27 -221 -15 -42 -44 -105 -64 -140 -48 -82 -171 -205 -253 -253 -409 -238
-923 -25 -1051 435 -24 90 -27 244 -5 337 89 377 458 615 839 541z"/>
<path d="M3073 4066 c-101 -33 -190 -113 -241 -216 -25 -50 -27 -65 -27 -170
0 -107 2 -119 29 -175 38 -77 114 -153 191 -191 56 -27 68 -29 175 -29 107 0
119 2 175 29 77 38 153 114 191 191 27 56 29 68 29 175 0 107 -2 119 -29 175
-38 77 -114 153 -191 190 -52 26 -72 30 -160 32 -64 2 -115 -2 -142 -11z m215
-172 c85 -35 142 -120 142 -214 0 -129 -101 -230 -230 -230 -202 0 -306 242
-167 389 64 67 171 90 255 55z"/>
<path d="M3822 2134 c-176 -59 -298 -182 -357 -357 -33 -100 -35 -242 -4 -343
54 -177 184 -309 362 -369 107 -36 247 -36 354 0 176 60 298 182 358 358 31
92 35 240 9 328 -56 189 -204 337 -393 393 -87 26 -239 21 -329 -10z m293
-160 c113 -32 127 -7 -179 -313 l-273 -273 -24 54 c-20 45 -24 69 -24 158 0
93 3 111 27 162 55 117 178 211 300 227 61 9 103 5 173 -15z m270 -374 c0 -99
-2 -110 -32 -171 -94 -190 -318 -272 -514 -187 l-51 21 274 274 273 274 25
-53 c22 -46 25 -67 25 -158z"/>
</g>
</svg>
