<svg width="24" height="24" viewBox="0 0 24 24" fill="none" xmlns="http://www.w3.org/2000/svg">
<g id="Location - Light 24px">
<g id="Location">
<path id="Fill 1" fill-rule="evenodd" clip-rule="evenodd" d="M12.001 8.66737C11.0067 8.66737 10.1979 9.4725 10.1979 10.4633C10.1979 11.453 11.0067 12.2571 12.001 12.2571C12.9952 12.2571 13.804 11.453 13.804 10.4633C13.804 9.4725 12.9952 8.66737 12.001 8.66737ZM12.0009 13.7956C10.1546 13.7956 8.65234 12.3012 8.65234 10.4633C8.65234 8.62429 10.1546 7.12891 12.0009 7.12891C13.8473 7.12891 15.3495 8.62429 15.3495 10.4633C15.3495 12.3012 13.8473 13.7956 12.0009 13.7956Z" fill="black"/>
<g id="Group 5">
<mask id="mask0_3475_2148" style="mask-type:alpha" maskUnits="userSpaceOnUse" x="3" y="2" width="18" height="20">
<path id="Clip 4" fill-rule="evenodd" clip-rule="evenodd" d="M3.5 2H20.5V22H3.5V2Z" fill="white"/>
</mask>
<g mask="url(#mask0_3475_2148)">
<path id="Fill 3" fill-rule="evenodd" clip-rule="evenodd" d="M11.9993 3.53846C8.16435 3.53846 5.04449 6.67385 5.04449 10.5262C5.04449 15.4277 10.8391 20.2031 11.9993 20.4574C13.1594 20.2021 18.954 15.4267 18.954 10.5262C18.954 6.67385 15.8342 3.53846 11.9993 3.53846ZM11.9993 22C10.1509 22 3.49902 16.3056 3.49902 10.5262C3.49902 5.82462 7.31229 2 11.9993 2C16.6863 2 20.4995 5.82462 20.4995 10.5262C20.4995 16.3056 13.8477 22 11.9993 22Z" fill="black"/>
</g>
</g>
</g>
</g>
</svg>
