<?xml version="1.0" standalone="no"?>
<!DOCTYPE svg PUBLIC "-//W3C//DTD SVG 20010904//EN"
 "http://www.w3.org/TR/2001/REC-SVG-20010904/DTD/svg10.dtd">
<svg version="1.0" xmlns="http://www.w3.org/2000/svg"
 width="200.000000pt" height="200.000000pt" viewBox="0 0 200.000000 200.000000"
 preserveAspectRatio="xMidYMid meet">

<g transform="translate(0.000000,200.000000) scale(0.100000,-0.100000)"
fill="#000000" stroke="none">
<path d="M905 1934 c-243 -37 -409 -117 -565 -274 -131 -130 -216 -284 -256
-461 -23 -99 -23 -299 0 -398 66 -292 275 -546 546 -662 232 -98 508 -98 740
0 212 91 400 279 491 491 78 185 96 412 46 603 -106 403 -456 685 -872 701
-55 3 -113 2 -130 0z m303 -84 c315 -76 566 -328 644 -647 57 -236 5 -510
-136 -706 -169 -237 -427 -370 -716 -370 -238 0 -431 78 -604 242 -208 200
-305 478 -262 758 78 514 569 844 1074 723z"/>
<path d="M925 1814 c-150 -21 -257 -58 -367 -130 -177 -114 -305 -295 -355
-502 -22 -93 -22 -276 2 -367 78 -308 302 -532 610 -610 95 -24 275 -24 370 0
374 95 626 412 629 790 0 132 -24 236 -84 360 -130 270 -387 442 -686 458 -49
3 -102 3 -119 1z m255 -80 c36 -9 108 -36 160 -62 80 -39 109 -60 186 -137
134 -132 201 -267 224 -447 19 -154 -20 -336 -101 -475 -44 -75 -187 -218
-262 -262 -139 -81 -321 -120 -475 -101 -180 23 -315 90 -447 224 -77 77 -98
106 -137 186 -61 125 -81 209 -81 340 0 133 20 219 80 340 39 79 62 110 138
186 197 199 445 271 715 208z"/>
<path d="M950 1485 c0 -51 -2 -55 -24 -55 -69 0 -171 -59 -204 -119 -26 -45
-30 -133 -9 -184 25 -58 117 -126 220 -160 15 -6 17 -21 17 -128 l0 -122 -57
5 c-32 3 -91 17 -130 30 l-73 24 0 -67 0 -67 46 -16 c26 -8 84 -21 130 -27
l84 -12 0 -64 0 -63 45 0 45 0 0 70 c0 68 1 70 25 70 40 0 134 40 172 73 43
37 72 98 73 147 0 110 -61 174 -232 244 l-38 15 0 115 c0 135 -7 130 125 96
43 -11 79 -19 81 -18 5 6 45 111 42 113 -16 13 -196 54 -240 55 -5 0 -8 23 -8
50 l0 50 -45 0 -45 0 0 -55z m0 -275 l0 -101 -31 16 c-65 34 -86 84 -58 136 9
18 59 47 82 49 4 0 7 -45 7 -100z m181 -336 c51 -58 21 -129 -63 -149 l-28 -7
0 106 0 106 38 -19 c20 -10 44 -27 53 -37z"/>
</g>
</svg>
