<svg width="25" height="25" viewBox="0 0 25 25" fill="none" xmlns="http://www.w3.org/2000/svg">
<path d="M18.0999 23.0608H6.89985C5.07984 23.0608 3.41985 21.6608 3.11985 19.8608L1.78984 11.9008C1.57984 10.6608 2.17985 9.07084 3.16985 8.28084L10.0999 2.73079C11.4399 1.65079 13.5498 1.6608 14.8998 2.7408L21.8299 8.28084C22.8099 9.07084 23.4099 10.6608 23.2099 11.9008L21.8799 19.8608C21.5799 21.6308 19.8899 23.0608 18.0999 23.0608ZM12.4899 3.44082C11.9599 3.44082 11.4298 3.60079 11.0398 3.91079L4.10985 9.46084C3.53985 9.92084 3.14986 10.9408 3.26986 11.6608L4.59986 19.6208C4.77986 20.6708 5.82984 21.5608 6.89985 21.5608H18.0999C19.1699 21.5608 20.2198 20.6708 20.3998 19.6108L21.7298 11.6508C21.8498 10.9308 21.4499 9.90083 20.8899 9.45083L13.9599 3.91079C13.5599 3.60079 13.0299 3.44082 12.4899 3.44082Z" fill="#777E91"/>
<path d="M12.5 16.75C10.71 16.75 9.25 15.29 9.25 13.5C9.25 11.71 10.71 10.25 12.5 10.25C14.29 10.25 15.75 11.71 15.75 13.5C15.75 15.29 14.29 16.75 12.5 16.75ZM12.5 11.75C11.54 11.75 10.75 12.54 10.75 13.5C10.75 14.46 11.54 15.25 12.5 15.25C13.46 15.25 14.25 14.46 14.25 13.5C14.25 12.54 13.46 11.75 12.5 11.75Z" fill="#777E91"/>
</svg>
