<svg width="25" height="25" viewBox="0 0 25 25" fill="none" xmlns="http://www.w3.org/2000/svg">
<path d="M21.3603 8.86985L14.4303 3.32985C13.3603 2.46985 11.6303 2.46985 10.5703 3.31985L3.64027 8.86985C2.86027 9.48985 2.36027 10.7998 2.53027 11.7798L3.86027 19.7398C4.10027 21.1598 5.46027 22.3098 6.90027 22.3098H18.1003C19.5303 22.3098 20.9003 21.1498 21.1403 19.7398L22.4703 11.7798C22.6303 10.7998 22.1303 9.48985 21.3603 8.86985ZM12.5003 15.9998C11.1203 15.9998 10.0003 14.8798 10.0003 13.4998C10.0003 12.1198 11.1203 10.9998 12.5003 10.9998C13.8803 10.9998 15.0003 12.1198 15.0003 13.4998C15.0003 14.8798 13.8803 15.9998 12.5003 15.9998Z" fill="#353945"/>
</svg>
