<svg width="24" height="24" viewBox="0 0 24 24" fill="none" xmlns="http://www.w3.org/2000/svg">
<g id="Message - Light 24px">
<g id="Message">
<path id="Fill 1" fill-rule="evenodd" clip-rule="evenodd" d="M12.0251 13.0825C11.4028 13.0825 10.7823 12.8785 10.2632 12.4705L6.09112 9.13262C5.79065 8.89262 5.74414 8.456 5.98507 8.15877C6.22787 7.86246 6.66694 7.81539 6.96647 8.05446L11.1349 11.3886C11.6586 11.8003 12.3963 11.8003 12.9237 11.3849L17.0502 8.05631C17.3498 7.81354 17.7888 7.8597 18.0326 8.15693C18.2754 8.45323 18.2298 8.88893 17.9312 9.13077L13.7972 12.4649C13.2744 12.8766 12.6493 13.0825 12.0251 13.0825Z" fill="black"/>
<g id="Group 5">
<mask id="mask0_3475_1712" style="mask-type:alpha" maskUnits="userSpaceOnUse" x="2" y="2" width="20" height="19">
<path id="Clip 4" fill-rule="evenodd" clip-rule="evenodd" d="M2 2.5H22V20.5H2V2.5Z" fill="white"/>
</mask>
<g mask="url(#mask0_3475_1712)">
<path id="Fill 3" fill-rule="evenodd" clip-rule="evenodd" d="M7.43168 19.1154H16.5666C16.5685 19.1135 16.5759 19.1154 16.5815 19.1154C17.6429 19.1154 18.5843 18.7388 19.3062 18.0234C20.1443 17.1954 20.6048 16.0055 20.6048 14.6735V8.33385C20.6048 5.75569 18.9062 3.88462 16.5666 3.88462H7.43354C5.094 3.88462 3.39539 5.75569 3.39539 8.33385V14.6735C3.39539 16.0055 3.85678 17.1954 4.694 18.0234C5.41586 18.7388 6.35819 19.1154 7.41866 19.1154H7.43168ZM7.41584 20.5C5.98048 20.5 4.69862 19.9831 3.70885 19.0046C2.60651 17.9135 2 16.3757 2 14.6735V8.33385C2 5.008 4.33582 2.5 7.43351 2.5H16.5666C19.6643 2.5 22.0001 5.008 22.0001 8.33385V14.6735C22.0001 16.3757 21.3936 17.9135 20.2912 19.0046C19.3024 19.9822 18.0196 20.5 16.5815 20.5H16.5666H7.43351H7.41584Z" fill="black"/>
</g>
</g>
</g>
</g>
</svg>
