<svg width="20" height="20" viewBox="0 0 20 20" fill="none" xmlns="http://www.w3.org/2000/svg">
<g id="Notification - Light 20px">
<g id="Notification">
<g id="Group 3">
<mask id="mask0_3475_1590" style="mask-type:alpha" maskUnits="userSpaceOnUse" x="3" y="2" width="14" height="13">
<path id="Clip 2" fill-rule="evenodd" clip-rule="evenodd" d="M3.5 2H16.5V14.9101H3.5V2Z" fill="white"/>
</mask>
<g mask="url(#mask0_3475_1590)">
<path id="Fill 1" fill-rule="evenodd" clip-rule="evenodd" d="M9.999 3.11627C7.54265 3.11627 5.83058 5.15385 5.83058 6.98232C5.83058 8.52948 5.42505 9.24464 5.06661 9.87571C4.77916 10.3825 4.55215 10.7829 4.55215 11.6528C4.66952 13.0564 5.54453 13.7939 9.999 13.7939C14.4289 13.7939 15.3313 13.0236 15.448 11.6045C15.4459 10.7829 15.2188 10.3825 14.9314 9.87571C14.573 9.24464 14.1674 8.52948 14.1674 6.98232C14.1674 5.15385 12.4554 3.11627 9.999 3.11627ZM9.99899 14.9101C6.7126 14.9101 3.74248 14.6646 3.50001 11.7005C3.4979 10.474 3.85142 9.85042 4.16347 9.30121C4.47904 8.74456 4.77633 8.21991 4.77633 6.98233C4.77633 4.57637 6.87495 2 9.99899 2C13.123 2 15.2216 4.57637 15.2216 6.98233C15.2216 8.21991 15.5189 8.74456 15.8345 9.30121C16.1466 9.85042 16.5001 10.474 16.5001 11.6528C16.2548 14.6646 13.2854 14.9101 9.99899 14.9101Z" fill="black"/>
</g>
</g>
<path id="Fill 4" fill-rule="evenodd" clip-rule="evenodd" d="M9.96448 18.0002H9.96308C9.17522 17.9995 8.42953 17.6318 7.86376 16.9643C7.66908 16.7358 7.68665 16.3824 7.90311 16.177C8.11958 15.9701 8.45272 15.9887 8.6474 16.2186C9.01146 16.648 9.47884 16.8839 9.96378 16.8839H9.96448C10.4515 16.8839 10.921 16.648 11.2858 16.2179C11.4812 15.9894 11.8143 15.9708 12.0301 16.177C12.2465 16.3831 12.2641 16.7366 12.0694 16.9651C11.5016 17.6326 10.7545 18.0002 9.96448 18.0002Z" fill="black"/>
</g>
</g>
</svg>
