<svg width="64" height="64" viewBox="0 0 64 64" fill="none" xmlns="http://www.w3.org/2000/svg">
<path d="M50.88 16.75H51.88C53.8479 16.75 55.7352 17.5317 57.1267 18.9233C58.5182 20.3148 59.3 22.2021 59.3 24.17V53.38C59.2973 54.9404 58.6756 56.436 57.5713 57.5384C56.467 58.6408 54.9704 59.26 53.41 59.26H10.63C9.0696 59.26 7.57297 58.6408 6.46866 57.5384C5.36436 56.436 4.74264 54.9404 4.73999 53.38V24.17C4.73999 22.2021 5.52174 20.3148 6.91326 18.9233C8.30478 17.5317 10.1921 16.75 12.16 16.75H40.81M40.81 19.13H50.88" stroke="black" stroke-width="3" stroke-linecap="round" stroke-linejoin="round"/>
<path d="M10.05 30.52C14.77 30.52 14.77 33.52 19.49 33.52C24.21 33.52 24.21 30.52 28.92 30.52C33.63 30.52 33.64 33.52 38.36 33.52C43.08 33.52 43.08 30.52 47.8 30.52M15.43 39.35C20.15 39.35 20.15 42.35 24.86 42.35C29.57 42.35 29.58 39.35 34.3 39.35C39.02 39.35 39.02 42.35 43.74 42.35C48.46 42.35 48.46 39.35 53.18 39.35M10.05 49.39C14.77 49.39 14.77 52.39 19.49 52.39C24.21 52.39 24.21 49.39 28.92 49.39C33.63 49.39 33.64 52.39 38.36 52.39C43.08 52.39 43.08 49.39 47.8 49.39M40.81 10.74V27.38M50.88 10.74V27.38M40.81 25.63H50.88M40.81 13.22H50.88" stroke="black" stroke-width="3" stroke-linecap="round" stroke-linejoin="round"/>
</svg>
