<svg width="29" height="31" viewBox="0 0 29 31" fill="none" xmlns="http://www.w3.org/2000/svg">
<g filter="url(#filter0_d_3785_5447)">
<path d="M16.0505 19.4203C15.5105 19.4203 14.9405 19.3703 14.3205 19.2703L9.63048 18.5303C8.15048 18.3003 7.01048 17.8903 6.16048 17.2903C3.97048 15.7703 4.10048 13.1603 4.38048 11.3303L5.12048 6.6403C5.80048 2.34029 8.02048 0.730295 12.3205 1.4003L17.0105 2.1403C19.2205 2.4903 22.1905 3.3803 22.3805 7.1103C22.4205 7.7503 22.3805 8.4803 22.2405 9.3403L21.5105 14.0303C20.9305 17.7003 19.2205 19.4203 16.0505 19.4203ZM10.5305 2.7503C8.15048 2.7503 7.07048 3.9603 6.60048 6.8803L5.86048 11.5703C5.40048 14.5203 6.24048 15.5203 7.02048 16.0703C7.68048 16.5403 8.61048 16.8603 9.86048 17.0503L14.5505 17.7903C18.0405 18.3403 19.4805 17.2903 20.0305 13.7903L20.7605 9.1003C20.8805 8.3503 20.9205 7.72029 20.8805 7.1903V7.18029C20.7705 5.0803 19.5805 4.0503 16.7705 3.6103L12.0905 2.8803C11.5105 2.7903 11.0005 2.7503 10.5305 2.7503Z" fill="#141416"/>
<path d="M17.6803 22.7509C16.8303 22.7509 15.8703 22.5709 14.7603 22.2009L10.2503 20.7009C7.68025 19.8509 6.29025 18.6309 5.87025 16.8509C5.80025 16.5509 5.92025 16.2309 6.18025 16.0609C6.44025 15.8909 6.78025 15.8909 7.03025 16.0709C7.69025 16.5409 8.61025 16.8609 9.86025 17.0509L14.5503 17.7909C18.0403 18.3409 19.4803 17.2909 20.0303 13.7909L20.7603 9.10093C20.8803 8.35093 20.9203 7.72093 20.8803 7.19093C20.8703 6.93093 21.0003 6.67093 21.2303 6.52093C21.4603 6.37093 21.7503 6.36093 21.9903 6.49093C24.6703 7.92093 25.3803 10.2109 24.2203 13.7109L22.7203 18.2209C22.0103 20.3409 21.0803 21.6409 19.7803 22.2909C19.1503 22.6009 18.4603 22.7509 17.6803 22.7509ZM8.73025 18.3609C9.21025 18.6809 9.85025 18.9909 10.7203 19.2809L15.2303 20.7809C16.9503 21.3509 18.1803 21.4009 19.1003 20.9509C20.0203 20.4909 20.7203 19.4709 21.2903 17.7509L22.7903 13.2409C23.6103 10.7609 23.2903 9.44093 22.3403 8.55093C22.3203 8.80093 22.2803 9.06093 22.2403 9.34093L21.5103 14.0309C20.8303 18.3309 18.6103 19.9409 14.3103 19.2809L9.62025 18.5409C9.31025 18.4809 9.01025 18.4209 8.73025 18.3609Z" fill="#141416"/>
<path d="M11.24 9.72023C9.87 9.72023 8.75 8.60023 8.75 7.23023C8.75 5.86023 9.87 4.74023 11.24 4.74023C12.61 4.74023 13.73 5.86023 13.73 7.23023C13.73 8.60023 12.61 9.72023 11.24 9.72023ZM11.24 6.25023C10.7 6.25023 10.25 6.69023 10.25 7.24023C10.25 7.79023 10.69 8.23023 11.24 8.23023C11.78 8.23023 12.23 7.79023 12.23 7.24023C12.23 6.69023 11.78 6.25023 11.24 6.25023Z" fill="#141416"/>
</g>
<defs>
<filter id="filter0_d_3785_5447" x="-1" y="0" width="32" height="32" filterUnits="userSpaceOnUse" color-interpolation-filters="sRGB">
<feFlood flood-opacity="0" result="BackgroundImageFix"/>
<feColorMatrix in="SourceAlpha" type="matrix" values="0 0 0 0 0 0 0 0 0 0 0 0 0 0 0 0 0 0 127 0" result="hardAlpha"/>
<feOffset dy="4"/>
<feGaussianBlur stdDeviation="2"/>
<feComposite in2="hardAlpha" operator="out"/>
<feColorMatrix type="matrix" values="0 0 0 0 0 0 0 0 0 0 0 0 0 0 0 0 0 0 0.25 0"/>
<feBlend mode="normal" in2="BackgroundImageFix" result="effect1_dropShadow_3785_5447"/>
<feBlend mode="normal" in="SourceGraphic" in2="effect1_dropShadow_3785_5447" result="shape"/>
</filter>
</defs>
</svg>
