<svg width="24" height="24" viewBox="0 0 24 24" fill="none" xmlns="http://www.w3.org/2000/svg">
<g id="Setting - Light 24ox">
<g id="Setting">
<g id="Group 3">
<mask id="mask0_3475_1906" style="mask-type:alpha" maskUnits="userSpaceOnUse" x="2" y="2" width="20" height="20">
<path id="Clip 2" fill-rule="evenodd" clip-rule="evenodd" d="M2.5 2H21.5V22H2.5V2Z" fill="white"/>
</mask>
<g mask="url(#mask0_3475_1906)">
<path id="Fill 1" fill-rule="evenodd" clip-rule="evenodd" d="M7.62546 16.9028C7.85107 16.9028 8.07669 16.9307 8.29738 16.9887C8.9634 17.1643 9.54173 17.6006 9.88459 18.1865C10.1072 18.5542 10.2304 18.9837 10.2343 19.4219C10.2343 20.0493 10.7486 20.5522 11.3812 20.5522H12.6156C13.2452 20.5522 13.7595 20.0522 13.7625 19.4354C13.7585 18.754 14.0304 18.1064 14.528 17.6189C15.0186 17.1383 15.7043 16.8497 16.3901 16.869C16.8393 16.8796 17.2718 16.9983 17.6531 17.2107C18.2019 17.5186 18.9024 17.3352 19.2196 16.8043L19.8738 15.7358C20.0196 15.4897 20.062 15.1808 19.9842 14.8961C19.9073 14.6114 19.7142 14.3643 19.4541 14.2185C18.8452 13.8749 18.4108 13.3209 18.2305 12.6568C18.0521 12.0053 18.1497 11.294 18.4975 10.7081C18.7241 10.322 19.0561 9.99672 19.4541 9.77279C19.9881 9.46682 20.1753 8.78249 19.865 8.2497C19.8522 8.22846 19.8403 8.20626 19.8305 8.1831L19.2531 7.20245C18.9388 6.66676 18.2393 6.48241 17.6906 6.78838C17.0975 7.13199 16.392 7.23044 15.7142 7.05574C15.0373 6.88393 14.4698 6.46407 14.1161 5.87143C13.8895 5.5008 13.7664 5.06935 13.7625 4.63018C13.7713 4.30008 13.6531 4.00376 13.4383 3.78659C13.2245 3.57039 12.924 3.44781 12.6156 3.44781H11.3812C11.0757 3.44781 10.79 3.5646 10.5742 3.77501C10.3595 3.98639 10.2422 4.26726 10.2442 4.56648C10.2235 5.97761 9.04616 7.11365 7.62053 7.11365C7.16338 7.10883 6.72299 6.98818 6.34072 6.76425C5.80377 6.46504 5.10228 6.64939 4.788 7.18508L4.121 8.25935C3.81557 8.77863 4.00277 9.46489 4.54661 9.77472C5.35352 10.2322 5.85697 11.0855 5.85697 12.0005C5.85697 12.9155 5.35352 13.7678 4.54464 14.2262C4.00375 14.5332 3.81656 15.2156 4.12986 15.7464L4.75154 16.7966C4.90524 17.0678 5.15647 17.2637 5.44711 17.3439C5.73677 17.423 6.05599 17.3892 6.322 17.2444C6.71313 17.0195 7.16831 16.9028 7.62546 16.9028ZM12.6157 22H11.3812C9.93387 22 8.75652 20.8475 8.75652 19.4297C8.75455 19.255 8.70332 19.0735 8.60775 18.9162C8.45307 18.6517 8.20282 18.4625 7.91415 18.3872C7.62745 18.312 7.31316 18.3535 7.05503 18.5002C6.43631 18.838 5.70822 18.92 5.04221 18.7366C4.37718 18.5523 3.80279 18.1044 3.46584 17.5108L2.85007 16.4713C2.12987 15.2474 2.55844 13.679 3.80574 12.9724C4.15944 12.7726 4.37915 12.4001 4.37915 12.0005C4.37915 11.6009 4.15944 11.2274 3.80574 11.0276C2.55746 10.3172 2.12987 8.74485 2.84909 7.52097L3.51707 6.4467C4.22742 5.23633 5.83335 4.80971 7.08557 5.51431C7.25602 5.61373 7.44124 5.66392 7.62942 5.66585C8.24322 5.66585 8.75652 5.16973 8.76637 4.55972C8.76243 3.88697 9.03337 3.24125 9.52697 2.75382C10.0225 2.26736 10.6807 2 11.3812 2H12.6157C13.3211 2 14.0068 2.28377 14.4984 2.77699C14.9891 3.2731 15.26 3.95357 15.2393 4.64369C15.2413 4.79909 15.2935 4.97862 15.3881 5.13595C15.5448 5.39655 15.792 5.57994 16.0856 5.65523C16.3792 5.72665 16.6866 5.68805 16.9477 5.53651C18.2088 4.83094 19.8137 5.2537 20.534 6.47951L21.1477 7.52097C21.1635 7.54896 21.1773 7.57599 21.1891 7.60398C21.8414 8.81145 21.4059 10.3316 20.194 11.0256C20.0177 11.125 19.8748 11.264 19.7763 11.432C19.6236 11.6916 19.5812 12.0005 19.6581 12.2843C19.7369 12.5738 19.9251 12.8141 20.1901 12.9628C20.7881 13.2996 21.2344 13.8672 21.4128 14.5226C21.5911 15.177 21.4936 15.8874 21.1458 16.4732L20.4916 17.5408C19.7714 18.7531 18.1664 19.1729 16.9182 18.4664C16.7517 18.3728 16.5595 18.3216 16.3684 18.3168H16.3625C16.0778 18.3168 15.7851 18.4355 15.5723 18.643C15.3566 18.8544 15.2383 19.1362 15.2403 19.4355C15.2334 20.8533 14.0561 22 12.6157 22Z" fill="black"/>
</g>
</g>
<path id="Fill 4" fill-rule="evenodd" clip-rule="evenodd" d="M12.003 10.1783C10.9783 10.1783 10.1448 10.9958 10.1448 11.9996C10.1448 13.0034 10.9783 13.819 12.003 13.819C13.0276 13.819 13.8611 13.0034 13.8611 11.9996C13.8611 10.9958 13.0276 10.1783 12.003 10.1783ZM12.003 15.2668C10.1636 15.2668 8.66699 13.8017 8.66699 11.9996C8.66699 10.1976 10.1636 8.73047 12.003 8.73047C13.8424 8.73047 15.339 10.1976 15.339 11.9996C15.339 13.8017 13.8424 15.2668 12.003 15.2668Z" fill="black"/>
</g>
</g>
</svg>
