<svg width="24" height="24" viewBox="0 0 24 24" fill="none" xmlns="http://www.w3.org/2000/svg">
<path d="M15.91 11.41C15.9685 9.8982 15.7145 8.39057 15.1639 6.98137C14.6133 5.57217 13.7779 4.2917 12.71 3.22002L12 2.52002L11.29 3.22002C10.2638 4.23818 9.4505 5.45048 8.89766 6.78622C8.34482 8.12196 8.06347 9.55441 8.07 11V11.41C6.53776 10.4922 4.78612 10.005 3 10H2V11C1.99997 13.4791 2.92077 15.8698 4.58376 17.7083C6.24675 19.5468 8.53337 20.7021 11 20.95V21H13V20.95C15.4666 20.7021 17.7532 19.5468 19.4162 17.7083C21.0792 15.8698 22 13.4791 22 11V10H21C19.2071 10.0014 17.4481 10.4887 15.91 11.41ZM12 5.43002C12.8584 6.52237 13.4522 7.79859 13.735 9.15875C14.0178 10.5189 13.9818 11.9261 13.63 13.27C12.9729 13.9865 12.4238 14.795 12 15.67C11.5762 14.795 11.0271 13.9865 10.37 13.27C10.1745 12.5291 10.0737 11.7663 10.07 11C10.0627 8.97815 10.7433 7.01393 12 5.43002ZM4.07 12.07C5.80704 12.3041 7.41914 13.1021 8.65851 14.3415C9.89788 15.5809 10.6959 17.193 10.93 18.93C9.19296 18.696 7.58086 17.8979 6.34149 16.6585C5.10212 15.4192 4.30407 13.8071 4.07 12.07ZM13.07 18.93C13.3041 17.193 14.1021 15.5809 15.3415 14.3415C16.5809 13.1021 18.193 12.3041 19.93 12.07C19.6959 13.8071 18.8979 15.4192 17.6585 16.6585C16.4191 17.8979 14.807 18.696 13.07 18.93Z" fill="black"/>
</svg>
