<svg width="24" height="24" viewBox="0 0 24 24" fill="none" xmlns="http://www.w3.org/2000/svg">
<path d="M5.11399 21.497C7.36599 21.994 9.68099 22.243 11.998 22.243C14.317 22.243 16.636 21.993 18.893 21.495L19.239 21.415C19.626 21.3304 19.9922 21.1695 20.3163 20.9417C20.6403 20.7138 20.9156 20.4236 21.126 20.088C21.559 19.403 21.696 18.591 21.513 17.8L19.524 9.36497C19.264 8.23197 18.435 7.39797 17.311 7.13397C16.5863 6.96465 15.8248 7.06415 15.168 7.41397C14.1655 6.49997 12.8566 5.99538 11.5 5.99997C8.68799 5.99997 6.41499 8.07797 6.07699 10.808C5.74699 11.095 5.47699 11.463 5.28699 11.906L3.00399 17.397C2.8419 17.7667 2.75879 18.1662 2.75999 18.57C2.75999 19.96 3.74899 21.191 5.11399 21.497ZM11.5 7.99997C12.383 7.99997 13.206 8.31997 13.836 8.89497C13.816 8.94397 13.796 8.99297 13.778 9.04397L11.904 14.313L10.804 11.843C10.6345 11.4526 10.3824 11.1036 10.0651 10.82C9.74783 10.5363 9.37285 10.3248 8.96599 10.2C8.75451 10.1346 8.53657 10.0924 8.31599 10.074L8.30399 10.072C8.57716 9.45296 9.02509 8.92716 9.59282 8.55909C10.1606 8.19102 10.8234 7.9967 11.5 7.99997ZM4.84299 18.184L7.12899 12.684C7.20606 12.4853 7.34857 12.3188 7.53299 12.212C7.64199 12.145 7.76699 12.109 7.89299 12.087C8.05258 12.0568 8.21702 12.0647 8.37299 12.11C8.50763 12.1513 8.63153 12.2217 8.73591 12.3162C8.84029 12.4107 8.9226 12.5271 8.97699 12.657L10.075 15.122C10.157 15.308 10.265 15.476 10.393 15.624C10.418 15.654 10.452 15.672 10.478 15.699C10.588 15.812 10.701 15.919 10.833 16.001C10.883 16.034 10.943 16.049 10.996 16.077C11.113 16.137 11.228 16.197 11.356 16.233C11.436 16.256 11.521 16.257 11.604 16.269C11.703 16.284 11.798 16.312 11.9 16.312L11.976 16.311C12.3755 16.298 12.7618 16.1645 13.0841 15.9281C13.4064 15.6916 13.6497 15.3632 13.782 14.986L15.655 9.73197C15.712 9.58197 15.772 9.46897 15.833 9.39497C16.065 9.11297 16.466 8.98797 16.853 9.08097C17.0327 9.11952 17.1971 9.21002 17.3258 9.34122C17.4546 9.47243 17.5419 9.63855 17.577 9.81897L19.567 18.255C19.627 18.518 19.58 18.79 19.435 19.02C19.364 19.1332 19.2709 19.2309 19.1613 19.3074C19.0517 19.3839 18.9278 19.4374 18.797 19.465L18.454 19.543C14.2026 20.476 9.7994 20.476 5.54799 19.543C5.32627 19.4932 5.12783 19.3701 4.98482 19.1935C4.8418 19.0169 4.76259 18.7972 4.75999 18.57C4.75999 18.44 4.78499 18.316 4.84299 18.184Z" fill="black"/>
<path d="M4 11C4.55228 11 5 10.5523 5 10C5 9.44772 4.55228 9 4 9C3.44772 9 3 9.44772 3 10C3 10.5523 3.44772 11 4 11Z" fill="black"/>
<path d="M11 5C11.5523 5 12 4.55228 12 4C12 3.44772 11.5523 3 11 3C10.4477 3 10 3.44772 10 4C10 4.55228 10.4477 5 11 5Z" fill="black"/>
<path d="M16 6C16.5523 6 17 5.55228 17 5C17 4.44772 16.5523 4 16 4C15.4477 4 15 4.44772 15 5C15 5.55228 15.4477 6 16 6Z" fill="black"/>
<path d="M6 7C6.55228 7 7 6.55228 7 6C7 5.44772 6.55228 5 6 5C5.44772 5 5 5.44772 5 6C5 6.55228 5.44772 7 6 7Z" fill="black"/>
</svg>
