<svg width="100" height="100" viewBox="0 0 100 100" fill="none" xmlns="http://www.w3.org/2000/svg">
<path d="M46.5 3.17543C48.6658 1.925 51.3342 1.925 53.5 3.17543L88.8013 23.5566C90.9671 24.8071 92.3013 27.1179 92.3013 29.6188V70.3812C92.3013 72.8821 90.9671 75.1929 88.8013 76.4434L53.5 96.8246C51.3342 98.075 48.6658 98.075 46.5 96.8246L11.1987 76.4434C9.03292 75.1929 7.69873 72.8821 7.69873 70.3812V29.6188C7.69873 27.1179 9.03292 24.8071 11.1987 23.5566L46.5 3.17543Z" fill="#141416" fill-opacity="0.4" stroke="#2FA2B9" stroke-width="2"/>
<g clip-path="url(#clip0_4052_13192)">
<path opacity="0.2" d="M67.5139 45.3362L50.8922 33.4177C50.3616 33.047 49.6454 33.0429 49.1087 33.4177L32.4871 45.3362C30.8097 46.539 28.9876 44.0032 30.6675 42.7986L47.2956 30.8756C47.2993 30.8729 47.303 30.8704 47.3067 30.8677C48.9116 29.7378 51.0707 29.7245 52.6945 30.8677C52.6981 30.8703 52.7019 30.8729 52.7056 30.8756L69.3335 42.7986C71.0169 44.0056 69.1769 46.5287 67.5139 45.3362Z" fill="#F9FAFB"/>
<path d="M62.1786 69.9847H53.1231C52.2608 69.9847 51.5618 69.2857 51.5618 68.4234V62.1783C51.5618 61.3174 50.8615 60.617 50.0006 60.617C49.1397 60.617 48.4393 61.3174 48.4393 62.1783V68.4234C48.4393 69.2857 47.7403 69.9847 46.878 69.9847H37.8225C35.2399 69.9847 33.1387 67.8835 33.1387 65.3008V51.2967C33.1387 49.7778 33.8786 48.3489 35.1183 47.4723L47.2916 38.6847C47.2966 38.6811 47.3016 38.6775 47.3068 38.6739C48.9117 37.5443 51.0704 37.531 52.6943 38.6739C52.6994 38.6775 52.7045 38.6811 52.7096 38.6847L64.8829 47.4724C66.1226 48.349 66.8625 49.7779 66.8625 51.2967V65.3009C66.8625 67.8835 64.7613 69.9847 62.1786 69.9847ZM54.6844 66.8621H62.1786C63.0395 66.8621 63.7399 66.1617 63.7399 65.3008V51.2967C63.7399 50.7892 63.4922 50.312 63.0772 50.0199C63.0721 50.0163 63.067 50.0127 63.062 50.0091L50.8909 41.2231C50.36 40.8532 49.6454 40.8503 49.1102 41.2231L36.9392 50.0091C36.9342 50.0127 36.9291 50.0163 36.9239 50.0199C36.509 50.312 36.2612 50.7892 36.2612 51.2967V65.3008C36.2612 66.1617 36.9616 66.8621 37.8225 66.8621H45.3167V62.1783C45.3167 59.5956 47.4179 57.4944 50.0006 57.4944C52.5832 57.4944 54.6844 59.5956 54.6844 62.1783V66.8621Z" fill="#F9FAFB"/>
</g>
<defs>
<clipPath id="clip0_4052_13192">
<rect width="40" height="40" fill="white" transform="translate(30 30)"/>
</clipPath>
</defs>
</svg>
